<?xml version="1.0" encoding="UTF-8"?>
<svg xmlns="http://www.w3.org/2000/svg" xmlns:xlink="http://www.w3.org/1999/xlink" width="128pt" height="128pt" viewBox="0 0 128 128" version="1.1">
<g id="surface1">
<path style=" stroke:none;fill-rule:nonzero;fill:rgb(100%,90.588235%,81.176471%);fill-opacity:1;" d="M 72.101562 93.53125 L 84.472656 81.914062 L 79.5625 81 C 77.191406 80.523438 75.484375 77.773438 75.484375 75.355469 L 75.484375 64.582031 L 52.515625 64.582031 L 52.515625 75.355469 C 52.515625 77.773438 50.808594 80.523438 48.4375 81 L 43.527344 81.914062 L 55.898438 93.53125 C 60.453125 97.808594 67.546875 97.808594 72.101562 93.53125 Z M 72.101562 93.53125 "/>
<path style=" stroke:none;fill-rule:nonzero;fill:rgb(95.686275%,82.745098%,65.098039%);fill-opacity:1;" d="M 64.945312 64.582031 L 64.945312 79.886719 C 64.945312 82.304688 66.648438 85.054688 69.019531 85.53125 L 78.707031 87.328125 L 84.472656 81.914062 L 79.5625 81 C 77.191406 80.523438 75.484375 77.773438 75.484375 75.355469 L 75.484375 64.582031 Z M 64.945312 64.582031 "/>
<path style=" stroke:none;fill-rule:nonzero;fill:rgb(17.647059%,34.509804%,44.705882%);fill-opacity:1;" d="M 98.027344 82.925781 L 80.566406 79.683594 C 79.925781 79.566406 79.265625 79.71875 78.742188 80.109375 L 64 91.128906 L 49.257812 80.109375 C 48.734375 79.71875 48.074219 79.5625 47.433594 79.683594 L 29.972656 82.925781 C 21.1875 85.511719 15.15625 93.574219 15.15625 102.730469 L 15.15625 123.660156 C 15.15625 126.058594 17.097656 128 19.496094 128 L 108.503906 128 C 110.902344 128 112.84375 126.058594 112.84375 123.660156 L 112.84375 102.734375 C 112.84375 93.574219 106.8125 85.511719 98.027344 82.925781 Z M 98.027344 82.925781 "/>
<path style=" stroke:none;fill-rule:nonzero;fill:rgb(11.372549%,27.058824%,34.901961%);fill-opacity:1;" d="M 98.027344 82.925781 L 80.566406 79.683594 C 79.925781 79.566406 79.265625 79.71875 78.742188 80.109375 L 71 85.894531 L 87.617188 88.984375 C 96.402344 91.570312 102.433594 93.996094 102.433594 103.152344 L 102.433594 128 L 108.503906 128 C 110.902344 128 112.84375 126.058594 112.84375 123.664062 L 112.84375 102.734375 C 112.84375 93.574219 106.8125 85.511719 98.027344 82.925781 Z M 98.027344 82.925781 "/>
<path style=" stroke:none;fill-rule:nonzero;fill:rgb(11.372549%,27.058824%,34.901961%);fill-opacity:1;" d="M 42.421875 80.613281 L 51.980469 93.988281 C 52.699219 94.992188 54.023438 95.367188 55.160156 94.882812 L 64 91.128906 L 49.257812 80.109375 C 48.734375 79.71875 48.074219 79.5625 47.433594 79.683594 Z M 42.421875 80.613281 "/>
<path style=" stroke:none;fill-rule:nonzero;fill:rgb(11.372549%,27.058824%,34.901961%);fill-opacity:1;" d="M 85.578125 80.613281 L 76.019531 93.988281 C 75.300781 94.992188 73.976562 95.367188 72.839844 94.882812 L 64 91.128906 L 78.742188 80.109375 C 79.265625 79.71875 79.925781 79.5625 80.566406 79.683594 Z M 85.578125 80.613281 "/>
<path style=" stroke:none;fill-rule:nonzero;fill:rgb(17.647059%,34.509804%,44.705882%);fill-opacity:1;" d="M 64 0 C 45.472656 0 30.453125 12.816406 30.453125 20.058594 C 30.453125 27.304688 45.472656 32.480469 64 32.480469 C 82.527344 32.480469 97.546875 27.304688 97.546875 20.058594 C 97.546875 12.816406 82.527344 0 64 0 Z M 64 0 "/>
<path style=" stroke:none;fill-rule:nonzero;fill:rgb(11.372549%,27.058824%,34.901961%);fill-opacity:1;" d="M 64 0 C 62.199219 0 60.433594 0.121094 58.710938 0.347656 C 74.722656 2.441406 86.964844 13.519531 86.964844 20.058594 C 86.964844 26.597656 74.722656 31.453125 58.710938 32.335938 C 60.433594 32.429688 62.199219 32.476562 64 32.476562 C 82.527344 32.476562 97.546875 27.304688 97.546875 20.058594 C 97.546875 12.816406 82.527344 0 64 0 Z M 64 0 "/>
<path style=" stroke:none;fill-rule:nonzero;fill:rgb(100%,90.588235%,81.176471%);fill-opacity:1;" d="M 87.988281 40.28125 L 86.457031 40.28125 L 86.457031 34.183594 C 86.457031 28.117188 83.964844 22.238281 79.367188 18.277344 C 75.761719 15.171875 52.238281 15.171875 48.632812 18.277344 C 44.035156 22.238281 41.542969 28.117188 41.542969 34.183594 L 41.542969 40.28125 L 40.011719 40.28125 C 37.769531 40.28125 35.949219 42.101562 35.949219 44.34375 L 35.949219 48.847656 C 35.949219 51.09375 37.769531 52.914062 40.011719 52.914062 L 41.550781 52.914062 C 41.675781 58.8125 44.15625 64.488281 48.632812 68.34375 C 52.238281 71.449219 57.304688 74.160156 64 74.234375 C 70.695312 74.15625 75.761719 71.449219 79.367188 68.34375 C 83.84375 64.488281 86.324219 58.8125 86.449219 52.914062 L 87.988281 52.914062 C 90.230469 52.914062 92.050781 51.09375 92.050781 48.847656 L 92.050781 44.34375 C 92.050781 42.101562 90.230469 40.28125 87.988281 40.28125 Z M 87.988281 40.28125 "/>
<path style=" stroke:none;fill-rule:nonzero;fill:rgb(95.686275%,82.745098%,65.098039%);fill-opacity:1;" d="M 87.988281 40.28125 L 86.457031 40.28125 L 86.457031 34.183594 C 86.457031 28.117188 83.964844 22.238281 79.367188 18.277344 C 77.097656 16.324219 66.933594 15.597656 58.816406 16.105469 C 63.59375 16.402344 67.660156 17.128906 68.996094 18.277344 C 73.59375 22.238281 76.085938 28.117188 76.085938 34.183594 L 76.085938 38.480469 L 76.082031 52.914062 C 75.953125 58.8125 73.476562 64.488281 68.996094 68.34375 C 66.390625 70.589844 63.015625 72.628906 58.816406 73.613281 C 60.421875 73.988281 62.148438 74.210938 64 74.234375 C 70.695312 74.15625 75.761719 71.449219 79.367188 68.34375 C 83.84375 64.488281 86.324219 58.8125 86.449219 52.914062 L 87.988281 52.914062 C 90.230469 52.914062 92.050781 51.09375 92.050781 48.847656 L 92.050781 44.34375 C 92.050781 42.101562 90.230469 40.28125 87.988281 40.28125 Z M 87.988281 40.28125 "/>
<path style=" stroke:none;fill-rule:nonzero;fill:rgb(100%,42.745098%,22.745098%);fill-opacity:1;" d="M 38.136719 26.746094 L 38.136719 40.738281 C 38.136719 40.738281 41.574219 40.660156 43.78125 42.84375 C 44.242188 43.300781 45.023438 42.96875 45.023438 42.320312 L 45.023438 31.957031 L 82.976562 31.957031 L 82.976562 42.320312 C 82.976562 42.96875 83.757812 43.300781 84.21875 42.84375 C 86.425781 40.660156 89.863281 40.738281 89.863281 40.738281 L 89.863281 26.746094 C 89.863281 18.078125 38.136719 18.078125 38.136719 26.746094 Z M 38.136719 26.746094 "/>
<path style=" stroke:none;fill-rule:nonzero;fill:rgb(17.647059%,34.509804%,44.705882%);fill-opacity:1;" d="M 64 38.144531 C 49.71875 38.144531 38.136719 33.710938 38.136719 28.242188 L 89.863281 28.242188 C 89.863281 33.710938 78.28125 38.144531 64 38.144531 Z M 64 38.144531 "/>
<path style=" stroke:none;fill-rule:nonzero;fill:rgb(11.372549%,27.058824%,34.901961%);fill-opacity:1;" d="M 38.136719 21.367188 L 38.136719 28.242188 L 89.863281 28.242188 L 89.863281 21.441406 C 89.863281 19.597656 88.613281 17.988281 86.824219 17.53125 C 82.039062 16.308594 72.304688 14.167969 62.789062 14.164062 C 54.019531 14.160156 45.4375 16.257812 41.082031 17.484375 C 39.339844 17.972656 38.136719 19.558594 38.136719 21.367188 Z M 38.136719 21.367188 "/>
<path style=" stroke:none;fill-rule:nonzero;fill:rgb(15.686275%,17.254902%,22.745098%);fill-opacity:1;" d="M 64 91.128906 L 57.050781 94.082031 L 61.113281 98.804688 L 66.886719 98.804688 L 70.949219 94.082031 Z M 64 91.128906 "/>
<path style=" stroke:none;fill-rule:nonzero;fill:rgb(15.686275%,17.254902%,22.745098%);fill-opacity:1;" d="M 66.886719 98.804688 L 61.113281 98.804688 L 57.050781 128 L 70.949219 128 Z M 66.886719 98.804688 "/>
<path style=" stroke:none;fill-rule:nonzero;fill:rgb(11.372549%,27.058824%,34.901961%);fill-opacity:1;" d="M 90.375 118.269531 L 80.199219 118.269531 C 79.523438 118.269531 78.976562 117.722656 78.976562 117.046875 L 78.976562 111.625 C 78.976562 110.949219 79.523438 110.402344 80.199219 110.402344 L 90.375 110.402344 C 91.050781 110.402344 91.597656 110.949219 91.597656 111.625 L 91.597656 117.046875 C 91.597656 117.722656 91.050781 118.269531 90.375 118.269531 Z M 90.375 118.269531 "/>
<path style=" stroke:none;fill-rule:nonzero;fill:rgb(11.372549%,27.058824%,34.901961%);fill-opacity:1;" d="M 47.800781 118.269531 L 37.625 118.269531 C 36.949219 118.269531 36.402344 117.722656 36.402344 117.046875 L 36.402344 111.625 C 36.402344 110.949219 36.949219 110.402344 37.625 110.402344 L 47.800781 110.402344 C 48.476562 110.402344 49.023438 110.949219 49.023438 111.625 L 49.023438 117.046875 C 49.023438 117.722656 48.476562 118.269531 47.800781 118.269531 Z M 47.800781 118.269531 "/>
<path style=" stroke:none;fill-rule:nonzero;fill:rgb(100%,74.901961%,7.843137%);fill-opacity:1;" d="M 19.082031 95.722656 C 20.992188 97.257812 23.785156 96.960938 25.324219 95.050781 L 27.425781 92.445312 C 28.964844 90.535156 28.664062 87.742188 26.757812 86.203125 L 25.25 84.988281 C 21.640625 87.132812 18.796875 90.320312 17.058594 94.085938 Z M 19.082031 95.722656 "/>
<path style=" stroke:none;fill-rule:nonzero;fill:rgb(91.764706%,63.529412%,0%);fill-opacity:1;" d="M 110.941406 94.085938 C 109.207031 90.320312 106.359375 87.132812 102.75 84.988281 L 101.242188 86.203125 C 99.335938 87.742188 99.035156 90.535156 100.574219 92.445312 L 102.675781 95.050781 C 104.214844 96.960938 107.007812 97.257812 108.917969 95.722656 Z M 110.941406 94.085938 "/>
<path style=" stroke:none;fill-rule:nonzero;fill:rgb(9.411765%,23.921569%,29.803922%);fill-opacity:1;" d="M 98.84375 108.46875 C 97.777344 108.46875 96.914062 109.332031 96.914062 110.398438 L 96.914062 128 L 100.777344 128 L 100.777344 110.398438 C 100.777344 109.332031 99.910156 108.46875 98.84375 108.46875 Z M 98.84375 108.46875 "/>
<path style=" stroke:none;fill-rule:nonzero;fill:rgb(9.411765%,23.921569%,29.803922%);fill-opacity:1;" d="M 29.15625 108.46875 C 28.089844 108.46875 27.222656 109.332031 27.222656 110.398438 L 27.222656 128 L 31.085938 128 L 31.085938 110.398438 C 31.085938 109.332031 30.222656 108.46875 29.15625 108.46875 Z M 29.15625 108.46875 "/>
</g>
</svg>
