<?xml version="1.0" encoding="UTF-8"?>
<svg xmlns="http://www.w3.org/2000/svg" xmlns:xlink="http://www.w3.org/1999/xlink" width="128pt" height="128pt" viewBox="0 0 128 128" version="1.1">
<g id="surface1">
<path style=" stroke:none;fill-rule:nonzero;fill:rgb(90.196078%,68.627451%,47.058824%);fill-opacity:1;" d="M 83.859375 90.484375 L 83.859375 75.035156 L 44.140625 75.035156 L 44.140625 90.484375 L 64 108.136719 Z M 83.859375 90.484375 "/>
<path style=" stroke:none;fill-rule:nonzero;fill:rgb(93.72549%,94.901961%,98.039216%);fill-opacity:1;" d="M 114.570312 97.710938 L 87.265625 91.285156 C 86.851562 91.1875 86.472656 91.023438 86.117188 90.824219 L 64 103.726562 L 42.746094 90.199219 C 42.195312 90.71875 41.511719 91.101562 40.734375 91.285156 L 13.429688 97.710938 C 9.441406 98.648438 6.625 102.207031 6.625 106.304688 L 6.625 123.585938 C 6.625 126.023438 8.601562 128 11.039062 128 L 116.960938 128 C 119.398438 128 121.375 126.023438 121.375 123.585938 L 121.375 106.304688 C 121.375 102.207031 118.558594 98.648438 114.570312 97.710938 Z M 114.570312 97.710938 "/>
<path style=" stroke:none;fill-rule:nonzero;fill:rgb(82.352941%,60.784314%,43.137255%);fill-opacity:1;" d="M 44.140625 75.035156 L 44.140625 91.335938 C 69.160156 100.347656 83.859375 77.789062 83.859375 77.789062 L 83.859375 75.035156 Z M 44.140625 75.035156 "/>
<path style=" stroke:none;fill-rule:nonzero;fill:rgb(94.117647%,75.294118%,52.941176%);fill-opacity:1;" d="M 35.3125 24.28125 L 37.234375 66.589844 C 37.414062 70.539062 39.351562 74.207031 42.515625 76.578125 L 51.640625 83.421875 C 53.933594 85.140625 56.722656 86.070312 59.585938 86.070312 L 68.414062 86.070312 C 71.277344 86.070312 74.066406 85.140625 76.359375 83.421875 L 85.484375 76.578125 C 88.648438 74.207031 90.585938 70.539062 90.765625 66.589844 L 92.6875 24.28125 C 92.6875 24.28125 35.3125 24.28125 35.3125 24.28125 Z M 35.3125 24.28125 "/>
<path style=" stroke:none;fill-rule:nonzero;fill:rgb(90.196078%,68.627451%,47.058824%);fill-opacity:1;" d="M 57.378906 33.109375 C 66.207031 33.109375 79.449219 30.902344 82.589844 24.28125 L 35.3125 24.28125 L 37.234375 66.589844 C 37.414062 70.539062 39.351562 74.207031 42.519531 76.578125 L 51.640625 83.421875 C 53.933594 85.140625 56.722656 86.070312 59.585938 86.070312 L 64 86.070312 C 59.585938 86.070312 50.757812 77.242188 50.757812 66.210938 C 50.757812 60.8125 50.757812 46.347656 50.757812 39.730469 C 50.757812 37.523438 52.964844 33.109375 57.378906 33.109375 Z M 57.378906 33.109375 "/>
<path style=" stroke:none;fill-rule:nonzero;fill:rgb(89.411765%,91.764706%,96.470588%);fill-opacity:1;" d="M 22.824219 113.679688 L 8.523438 100.832031 C 7.328125 102.351562 6.625 104.257812 6.625 106.304688 L 6.625 123.585938 C 6.625 126.023438 8.601562 128 11.039062 128 L 26.484375 128 L 26.484375 121.886719 C 26.484375 118.753906 25.15625 115.769531 22.824219 113.679688 Z M 22.824219 113.679688 "/>
<path style=" stroke:none;fill-rule:nonzero;fill:rgb(89.411765%,91.764706%,96.470588%);fill-opacity:1;" d="M 105.175781 113.679688 L 119.476562 100.832031 C 120.671875 102.351562 121.375 104.257812 121.375 106.304688 L 121.375 123.585938 C 121.375 126.023438 119.398438 128 116.960938 128 L 101.515625 128 L 101.515625 121.886719 C 101.515625 118.753906 102.847656 115.769531 105.175781 113.679688 Z M 105.175781 113.679688 "/>
<path style=" stroke:none;fill-rule:nonzero;fill:rgb(35.686275%,36.470588%,43.137255%);fill-opacity:1;" d="M 69.515625 128 L 58.484375 128 L 59.863281 108.136719 L 68.136719 108.136719 Z M 69.515625 128 "/>
<path style=" stroke:none;fill-rule:nonzero;fill:rgb(31.764706%,32.156863%,38.431373%);fill-opacity:1;" d="M 69.515625 103.726562 L 58.484375 103.726562 L 58.484375 107.878906 C 58.484375 109.242188 59.585938 110.34375 60.949219 110.34375 L 67.050781 110.34375 C 68.414062 110.34375 69.515625 109.242188 69.515625 107.878906 Z M 69.515625 103.726562 "/>
<path style=" stroke:none;fill-rule:nonzero;fill:rgb(89.411765%,91.764706%,96.470588%);fill-opacity:1;" d="M 43.828125 85.570312 L 64 103.726562 C 64 103.726562 58.351562 106.578125 51.378906 112.324219 C 49.941406 113.511719 47.765625 113.03125 46.996094 111.332031 L 37.519531 90.484375 L 40.515625 85.988281 C 41.261719 84.867188 42.828125 84.671875 43.828125 85.570312 Z M 43.828125 85.570312 "/>
<path style=" stroke:none;fill-rule:nonzero;fill:rgb(89.411765%,91.764706%,96.470588%);fill-opacity:1;" d="M 84.171875 85.570312 L 64 103.726562 C 64 103.726562 69.648438 106.578125 76.621094 112.324219 C 78.058594 113.511719 80.234375 113.03125 81.003906 111.332031 L 90.480469 90.484375 L 87.484375 85.988281 C 86.738281 84.867188 85.171875 84.671875 84.171875 85.570312 Z M 84.171875 85.570312 "/>
<path style=" stroke:none;fill-rule:nonzero;fill:rgb(47.058824%,33.333333%,31.372549%);fill-opacity:1;" d="M 77.378906 9.660156 L 79.449219 24.28125 C 88.890625 26.171875 90.253906 40.992188 90.449219 45.222656 C 90.484375 45.992188 90.730469 46.734375 91.144531 47.378906 L 94.75 52.96875 C 94.75 52.96875 93.515625 43.726562 99.164062 37.523438 C 99.164062 37.523438 101.101562 0.835938 77.378906 9.660156 Z M 77.378906 9.660156 "/>
<path style=" stroke:none;fill-rule:nonzero;fill:rgb(94.117647%,75.294118%,52.941176%);fill-opacity:1;" d="M 96.960938 52.027344 L 94.472656 61.992188 C 94.175781 63.175781 93.113281 64.003906 91.898438 64.003906 C 90.558594 64.003906 89.429688 63.007812 89.265625 61.679688 L 87.988281 51.488281 C 87.648438 48.757812 89.777344 46.347656 92.527344 46.347656 C 95.5 46.347656 97.683594 49.144531 96.960938 52.027344 Z M 96.960938 52.027344 "/>
<path style=" stroke:none;fill-rule:nonzero;fill:rgb(41.176471%,29.411765%,29.411765%);fill-opacity:1;" d="M 37.425781 5.707031 L 40.691406 7.9375 C 25.933594 18.832031 28.691406 37.523438 28.691406 37.523438 C 33.105469 41.933594 33.105469 52.96875 33.105469 52.96875 L 37.519531 48.554688 C 37.519531 48.554688 35.816406 35.804688 44.140625 30.902344 C 51.863281 26.351562 58.621094 28.695312 65.515625 28.695312 C 84 28.695312 89.171875 21.730469 88.273438 13.246094 C 87.808594 8.859375 81.101562 -0.285156 64 0.0078125 C 57.097656 0.125 44.140625 2.214844 37.425781 5.707031 Z M 37.425781 5.707031 "/>
<path style=" stroke:none;fill-rule:nonzero;fill:rgb(35.294118%,25.490196%,27.45098%);fill-opacity:1;" d="M 36.140625 26.765625 C 36.140625 26.765625 33.792969 17.523438 40.691406 7.9375 C 25.933594 18.832031 28.691406 37.523438 28.691406 37.523438 C 33.105469 41.9375 33.105469 52.96875 33.105469 52.96875 L 37.519531 48.554688 C 37.519531 48.554688 35.816406 35.808594 44.140625 30.902344 C 51.863281 26.351562 58.621094 28.695312 65.515625 28.695312 C 68.523438 28.695312 71.140625 28.492188 73.476562 28.148438 C 59.242188 28.625 50.851562 17.84375 36.140625 26.765625 Z M 36.140625 26.765625 "/>
<path style=" stroke:none;fill-rule:nonzero;fill:rgb(90.196078%,68.627451%,47.058824%);fill-opacity:1;" d="M 31.039062 52.027344 L 33.53125 61.992188 C 33.824219 63.175781 34.886719 64.003906 36.101562 64.003906 C 37.441406 64.003906 38.570312 63.007812 38.734375 61.679688 L 40.011719 51.488281 C 40.351562 48.757812 38.222656 46.347656 35.476562 46.347656 L 35.472656 46.347656 C 32.5 46.347656 30.316406 49.144531 31.039062 52.027344 Z M 31.039062 52.027344 "/>
<path style=" stroke:none;fill-rule:nonzero;fill:rgb(89.411765%,91.764706%,96.470588%);fill-opacity:1;" d="M 92.6875 123.585938 L 77.242188 123.585938 C 76.023438 123.585938 75.035156 124.574219 75.035156 125.792969 L 75.035156 128 L 94.894531 128 L 94.894531 125.792969 C 94.894531 124.574219 93.90625 123.585938 92.6875 123.585938 Z M 92.6875 123.585938 "/>
</g>
</svg>
